<svg width="28.000000" height="28.000000" viewBox="0 0 28 28" fill="none" xmlns="http://www.w3.org/2000/svg" xmlns:xlink="http://www.w3.org/1999/xlink">
	<desc>
			Created with Pixso.
	</desc>
	<defs>
		<clipPath id="clip129_5344">
			<rect id="fa:search" width="28.000000" height="28.000000" fill="white" fill-opacity="0"/>
		</clipPath>
	</defs>
	<rect id="fa:search" width="28.000000" height="28.000000" fill="#FFFFFF" fill-opacity="0"/>
	<g clip-path="url(#clip129_5344)">
		<path id="Vector" d="M19.38 11.84C19.38 9.77 18.64 7.99 17.17 6.52C15.69 5.04 13.92 4.3 11.84 4.3C9.77 4.3 7.99 5.04 6.52 6.52C5.04 7.99 4.3 9.77 4.3 11.84C4.3 13.92 5.04 15.69 6.52 17.17C7.99 18.64 9.77 19.38 11.84 19.38C13.92 19.38 15.69 18.64 17.17 17.17C18.64 15.69 19.38 13.92 19.38 11.84ZM28 25.84C28 26.42 27.78 26.93 27.36 27.36C26.93 27.78 26.42 28 25.84 28C25.24 28 24.73 27.78 24.33 27.36L18.56 21.6C16.55 22.99 14.31 23.69 11.84 23.69C10.24 23.69 8.7 23.38 7.24 22.75C5.78 22.13 4.51 21.29 3.45 20.23C2.39 19.17 1.55 17.91 0.93 16.44C0.31 14.98 0 13.45 0 11.84C0 10.24 0.31 8.7 0.93 7.24C1.55 5.78 2.39 4.51 3.45 3.45C4.51 2.39 5.78 1.55 7.24 0.93C8.7 0.31 10.24 0 11.84 0C13.45 0 14.98 0.31 16.44 0.93C17.91 1.55 19.17 2.39 20.23 3.45C21.29 4.51 22.13 5.78 22.75 7.24C23.38 8.7 23.69 10.24 23.69 11.84C23.69 14.31 22.99 16.55 21.6 18.56L27.37 24.33C27.79 24.74 28 25.25 28 25.84Z" fill="#FFFFFF" fill-opacity="1.000000" fill-rule="nonzero"/>
	</g>
</svg>
